<mxfile host="app.diagrams.net" modified="2023-03-29T12:27:22.419Z" agent="Mozilla/5.0 (Macintosh; Intel Mac OS X 10_15_7) AppleWebKit/537.36 (KHTML, like Gecko) Chrome/109.0.0.0 Safari/537.36" etag="8UVoO0G1roWRIHmfuiH0" version="21.1.1" type="github">
  <diagram id="C5RBs43oDa-KdzZeNtuy" name="Page-1">
    <mxGraphModel dx="769" dy="386" grid="1" gridSize="10" guides="1" tooltips="1" connect="1" arrows="1" fold="1" page="1" pageScale="1" pageWidth="827" pageHeight="1169" math="0" shadow="0">
      <root>
        <mxCell id="WIyWlLk6GJQsqaUBKTNV-0" />
        <mxCell id="WIyWlLk6GJQsqaUBKTNV-1" parent="WIyWlLk6GJQsqaUBKTNV-0" />
        <mxCell id="kkI6u4sP05yuK3E6vkb3-46" value="" style="rhombus;whiteSpace=wrap;html=1;strokeColor=#3029FF;" vertex="1" parent="WIyWlLk6GJQsqaUBKTNV-1">
          <mxGeometry x="120" y="270" width="80" height="35" as="geometry" />
        </mxCell>
        <mxCell id="kkI6u4sP05yuK3E6vkb3-48" style="edgeStyle=orthogonalEdgeStyle;rounded=0;orthogonalLoop=1;jettySize=auto;html=1;exitX=0.5;exitY=1;exitDx=0;exitDy=0;entryX=0.5;entryY=0;entryDx=0;entryDy=0;strokeColor=#3029FF;" edge="1" parent="WIyWlLk6GJQsqaUBKTNV-1" source="WIyWlLk6GJQsqaUBKTNV-3" target="kkI6u4sP05yuK3E6vkb3-6">
          <mxGeometry relative="1" as="geometry" />
        </mxCell>
        <mxCell id="WIyWlLk6GJQsqaUBKTNV-3" value="Quality check" style="rounded=1;whiteSpace=wrap;html=1;fontSize=12;glass=0;strokeWidth=1;shadow=0;strokeColor=#3029FF;" parent="WIyWlLk6GJQsqaUBKTNV-1" vertex="1">
          <mxGeometry x="170" y="40" width="120" height="40" as="geometry" />
        </mxCell>
        <mxCell id="kkI6u4sP05yuK3E6vkb3-5" value="Canu" style="text;html=1;strokeColor=none;fillColor=none;align=center;verticalAlign=middle;whiteSpace=wrap;rounded=0;strokeWidth=0;" vertex="1" parent="WIyWlLk6GJQsqaUBKTNV-1">
          <mxGeometry x="110" y="225" width="60" height="30" as="geometry" />
        </mxCell>
        <mxCell id="kkI6u4sP05yuK3E6vkb3-49" style="edgeStyle=orthogonalEdgeStyle;rounded=0;orthogonalLoop=1;jettySize=auto;html=1;exitX=0.5;exitY=1;exitDx=0;exitDy=0;entryX=0.5;entryY=0;entryDx=0;entryDy=0;strokeColor=#3029FF;" edge="1" parent="WIyWlLk6GJQsqaUBKTNV-1" source="kkI6u4sP05yuK3E6vkb3-6" target="kkI6u4sP05yuK3E6vkb3-8">
          <mxGeometry relative="1" as="geometry" />
        </mxCell>
        <mxCell id="kkI6u4sP05yuK3E6vkb3-6" value="Trimming" style="rounded=1;whiteSpace=wrap;html=1;fontSize=12;glass=0;strokeWidth=1;shadow=0;strokeColor=#3029FF;" vertex="1" parent="WIyWlLk6GJQsqaUBKTNV-1">
          <mxGeometry x="170" y="100" width="120" height="40" as="geometry" />
        </mxCell>
        <mxCell id="kkI6u4sP05yuK3E6vkb3-50" style="edgeStyle=orthogonalEdgeStyle;rounded=0;orthogonalLoop=1;jettySize=auto;html=1;exitX=0.5;exitY=1;exitDx=0;exitDy=0;entryX=0.5;entryY=0;entryDx=0;entryDy=0;strokeColor=#3029FF;" edge="1" parent="WIyWlLk6GJQsqaUBKTNV-1" source="kkI6u4sP05yuK3E6vkb3-8" target="kkI6u4sP05yuK3E6vkb3-10">
          <mxGeometry relative="1" as="geometry" />
        </mxCell>
        <mxCell id="kkI6u4sP05yuK3E6vkb3-8" value="Quality check" style="rounded=1;whiteSpace=wrap;html=1;fontSize=12;glass=0;strokeWidth=1;shadow=0;strokeColor=#3029FF;" vertex="1" parent="WIyWlLk6GJQsqaUBKTNV-1">
          <mxGeometry x="170" y="160" width="120" height="40" as="geometry" />
        </mxCell>
        <mxCell id="kkI6u4sP05yuK3E6vkb3-51" style="edgeStyle=orthogonalEdgeStyle;rounded=0;orthogonalLoop=1;jettySize=auto;html=1;exitX=0.25;exitY=1;exitDx=0;exitDy=0;entryX=1;entryY=0;entryDx=0;entryDy=0;strokeColor=#3029FF;" edge="1" parent="WIyWlLk6GJQsqaUBKTNV-1" source="kkI6u4sP05yuK3E6vkb3-10" target="kkI6u4sP05yuK3E6vkb3-46">
          <mxGeometry relative="1" as="geometry" />
        </mxCell>
        <mxCell id="kkI6u4sP05yuK3E6vkb3-52" style="edgeStyle=orthogonalEdgeStyle;rounded=0;orthogonalLoop=1;jettySize=auto;html=1;exitX=0.75;exitY=1;exitDx=0;exitDy=0;entryX=0.25;entryY=0;entryDx=0;entryDy=0;strokeColor=#3029FF;" edge="1" parent="WIyWlLk6GJQsqaUBKTNV-1" source="kkI6u4sP05yuK3E6vkb3-10" target="kkI6u4sP05yuK3E6vkb3-42">
          <mxGeometry relative="1" as="geometry" />
        </mxCell>
        <mxCell id="kkI6u4sP05yuK3E6vkb3-10" value="Assembly" style="rounded=1;whiteSpace=wrap;html=1;fontSize=12;glass=0;strokeWidth=1;shadow=0;strokeColor=#3029FF;" vertex="1" parent="WIyWlLk6GJQsqaUBKTNV-1">
          <mxGeometry x="170" y="220" width="120" height="40" as="geometry" />
        </mxCell>
        <mxCell id="kkI6u4sP05yuK3E6vkb3-57" style="edgeStyle=orthogonalEdgeStyle;rounded=0;orthogonalLoop=1;jettySize=auto;html=1;exitX=0.5;exitY=1;exitDx=0;exitDy=0;entryX=0.5;entryY=0;entryDx=0;entryDy=0;strokeColor=#3029FF;" edge="1" parent="WIyWlLk6GJQsqaUBKTNV-1" source="kkI6u4sP05yuK3E6vkb3-11" target="kkI6u4sP05yuK3E6vkb3-13">
          <mxGeometry relative="1" as="geometry" />
        </mxCell>
        <mxCell id="kkI6u4sP05yuK3E6vkb3-11" value="Evaluation" style="rounded=1;whiteSpace=wrap;html=1;fontSize=12;glass=0;strokeWidth=1;shadow=0;strokeColor=#3029FF;" vertex="1" parent="WIyWlLk6GJQsqaUBKTNV-1">
          <mxGeometry x="290" y="320" width="120" height="40" as="geometry" />
        </mxCell>
        <mxCell id="kkI6u4sP05yuK3E6vkb3-58" style="edgeStyle=orthogonalEdgeStyle;rounded=0;orthogonalLoop=1;jettySize=auto;html=1;exitX=0.5;exitY=1;exitDx=0;exitDy=0;entryX=0.5;entryY=0;entryDx=0;entryDy=0;strokeColor=#3029FF;" edge="1" parent="WIyWlLk6GJQsqaUBKTNV-1" source="kkI6u4sP05yuK3E6vkb3-13" target="kkI6u4sP05yuK3E6vkb3-21">
          <mxGeometry relative="1" as="geometry" />
        </mxCell>
        <mxCell id="kkI6u4sP05yuK3E6vkb3-13" value="Correct assembly&amp;nbsp;" style="rounded=1;whiteSpace=wrap;html=1;fontSize=12;glass=0;strokeWidth=1;shadow=0;strokeColor=#3029FF;" vertex="1" parent="WIyWlLk6GJQsqaUBKTNV-1">
          <mxGeometry x="290" y="380" width="120" height="40" as="geometry" />
        </mxCell>
        <mxCell id="kkI6u4sP05yuK3E6vkb3-17" value="FastQC" style="text;html=1;strokeColor=none;fillColor=none;align=center;verticalAlign=middle;whiteSpace=wrap;rounded=0;strokeWidth=0;" vertex="1" parent="WIyWlLk6GJQsqaUBKTNV-1">
          <mxGeometry x="110" y="45" width="60" height="30" as="geometry" />
        </mxCell>
        <mxCell id="kkI6u4sP05yuK3E6vkb3-18" value="FastQC" style="text;html=1;strokeColor=none;fillColor=none;align=center;verticalAlign=middle;whiteSpace=wrap;rounded=0;strokeWidth=0;" vertex="1" parent="WIyWlLk6GJQsqaUBKTNV-1">
          <mxGeometry x="110" y="160" width="60" height="30" as="geometry" />
        </mxCell>
        <mxCell id="kkI6u4sP05yuK3E6vkb3-19" value="Trimmomatic" style="text;html=1;strokeColor=none;fillColor=none;align=center;verticalAlign=middle;whiteSpace=wrap;rounded=0;strokeWidth=0;" vertex="1" parent="WIyWlLk6GJQsqaUBKTNV-1">
          <mxGeometry x="100" y="105" width="60" height="30" as="geometry" />
        </mxCell>
        <mxCell id="kkI6u4sP05yuK3E6vkb3-20" value="Quast" style="text;html=1;strokeColor=none;fillColor=none;align=center;verticalAlign=middle;whiteSpace=wrap;rounded=0;strokeWidth=0;" vertex="1" parent="WIyWlLk6GJQsqaUBKTNV-1">
          <mxGeometry x="230" y="325" width="60" height="30" as="geometry" />
        </mxCell>
        <mxCell id="kkI6u4sP05yuK3E6vkb3-65" style="edgeStyle=orthogonalEdgeStyle;rounded=0;orthogonalLoop=1;jettySize=auto;html=1;entryX=1;entryY=0.25;entryDx=0;entryDy=0;strokeColor=#3029FF;" edge="1" parent="WIyWlLk6GJQsqaUBKTNV-1" source="kkI6u4sP05yuK3E6vkb3-21" target="kkI6u4sP05yuK3E6vkb3-22">
          <mxGeometry relative="1" as="geometry" />
        </mxCell>
        <mxCell id="kkI6u4sP05yuK3E6vkb3-21" value="Evaluation" style="rounded=1;whiteSpace=wrap;html=1;fontSize=12;glass=0;strokeWidth=1;shadow=0;strokeColor=#3029FF;" vertex="1" parent="WIyWlLk6GJQsqaUBKTNV-1">
          <mxGeometry x="290" y="440" width="120" height="40" as="geometry" />
        </mxCell>
        <mxCell id="kkI6u4sP05yuK3E6vkb3-78" style="edgeStyle=orthogonalEdgeStyle;rounded=0;orthogonalLoop=1;jettySize=auto;html=1;exitX=0.75;exitY=1;exitDx=0;exitDy=0;entryX=0.5;entryY=0;entryDx=0;entryDy=0;strokeColor=#FF0000;" edge="1" parent="WIyWlLk6GJQsqaUBKTNV-1" source="kkI6u4sP05yuK3E6vkb3-22" target="kkI6u4sP05yuK3E6vkb3-70">
          <mxGeometry relative="1" as="geometry" />
        </mxCell>
        <mxCell id="kkI6u4sP05yuK3E6vkb3-84" style="edgeStyle=orthogonalEdgeStyle;rounded=0;orthogonalLoop=1;jettySize=auto;html=1;exitX=0.25;exitY=1;exitDx=0;exitDy=0;entryX=0.25;entryY=0;entryDx=0;entryDy=0;strokeColor=#3029FF;" edge="1" parent="WIyWlLk6GJQsqaUBKTNV-1" source="kkI6u4sP05yuK3E6vkb3-22" target="kkI6u4sP05yuK3E6vkb3-73">
          <mxGeometry relative="1" as="geometry" />
        </mxCell>
        <mxCell id="kkI6u4sP05yuK3E6vkb3-22" value="Annotation" style="rounded=1;whiteSpace=wrap;html=1;fontSize=12;glass=0;strokeWidth=1;shadow=0;strokeColor=#3029FF;" vertex="1" parent="WIyWlLk6GJQsqaUBKTNV-1">
          <mxGeometry x="200" y="500" width="120" height="40" as="geometry" />
        </mxCell>
        <mxCell id="kkI6u4sP05yuK3E6vkb3-24" value="Quast" style="text;html=1;strokeColor=none;fillColor=none;align=center;verticalAlign=middle;whiteSpace=wrap;rounded=0;strokeWidth=0;" vertex="1" parent="WIyWlLk6GJQsqaUBKTNV-1">
          <mxGeometry x="230" y="445" width="60" height="30" as="geometry" />
        </mxCell>
        <mxCell id="kkI6u4sP05yuK3E6vkb3-26" value="Spades" style="text;html=1;strokeColor=none;fillColor=none;align=center;verticalAlign=middle;whiteSpace=wrap;rounded=0;strokeWidth=0;" vertex="1" parent="WIyWlLk6GJQsqaUBKTNV-1">
          <mxGeometry x="230" y="385" width="60" height="30" as="geometry" />
        </mxCell>
        <mxCell id="kkI6u4sP05yuK3E6vkb3-27" value="Prokka" style="text;html=1;strokeColor=none;fillColor=none;align=center;verticalAlign=middle;whiteSpace=wrap;rounded=0;strokeWidth=0;" vertex="1" parent="WIyWlLk6GJQsqaUBKTNV-1">
          <mxGeometry x="140" y="505" width="60" height="30" as="geometry" />
        </mxCell>
        <mxCell id="kkI6u4sP05yuK3E6vkb3-28" value="DNA" style="text;html=1;strokeColor=none;fillColor=none;align=center;verticalAlign=middle;whiteSpace=wrap;rounded=0;strokeWidth=0;fontStyle=1;fontSize=14;" vertex="1" parent="WIyWlLk6GJQsqaUBKTNV-1">
          <mxGeometry x="200" y="10" width="60" height="30" as="geometry" />
        </mxCell>
        <mxCell id="kkI6u4sP05yuK3E6vkb3-29" value="RNA" style="text;html=1;strokeColor=none;fillColor=none;align=center;verticalAlign=middle;whiteSpace=wrap;rounded=0;strokeWidth=0;fontStyle=1;fontSize=14;" vertex="1" parent="WIyWlLk6GJQsqaUBKTNV-1">
          <mxGeometry x="460" y="340.17" width="60" height="30" as="geometry" />
        </mxCell>
        <mxCell id="kkI6u4sP05yuK3E6vkb3-68" style="edgeStyle=orthogonalEdgeStyle;rounded=0;orthogonalLoop=1;jettySize=auto;html=1;exitX=0.5;exitY=1;exitDx=0;exitDy=0;entryX=0.5;entryY=0;entryDx=0;entryDy=0;strokeColor=#FF0000;" edge="1" parent="WIyWlLk6GJQsqaUBKTNV-1" source="kkI6u4sP05yuK3E6vkb3-31" target="kkI6u4sP05yuK3E6vkb3-34">
          <mxGeometry relative="1" as="geometry" />
        </mxCell>
        <mxCell id="kkI6u4sP05yuK3E6vkb3-31" value="Quality check" style="rounded=1;whiteSpace=wrap;html=1;fontSize=12;glass=0;strokeWidth=1;shadow=0;strokeColor=#FF3333;" vertex="1" parent="WIyWlLk6GJQsqaUBKTNV-1">
          <mxGeometry x="430" y="380.17" width="120" height="40" as="geometry" />
        </mxCell>
        <mxCell id="kkI6u4sP05yuK3E6vkb3-32" value="FastQC" style="text;html=1;strokeColor=none;fillColor=none;align=center;verticalAlign=middle;whiteSpace=wrap;rounded=0;strokeWidth=0;" vertex="1" parent="WIyWlLk6GJQsqaUBKTNV-1">
          <mxGeometry x="550" y="385.17" width="60" height="30" as="geometry" />
        </mxCell>
        <mxCell id="kkI6u4sP05yuK3E6vkb3-33" value="Trimmomatic" style="text;html=1;strokeColor=none;fillColor=none;align=center;verticalAlign=middle;whiteSpace=wrap;rounded=0;strokeWidth=0;" vertex="1" parent="WIyWlLk6GJQsqaUBKTNV-1">
          <mxGeometry x="560" y="445.17" width="60" height="30" as="geometry" />
        </mxCell>
        <mxCell id="kkI6u4sP05yuK3E6vkb3-69" style="edgeStyle=orthogonalEdgeStyle;rounded=0;orthogonalLoop=1;jettySize=auto;html=1;exitX=0.5;exitY=1;exitDx=0;exitDy=0;entryX=0.5;entryY=0;entryDx=0;entryDy=0;strokeColor=#FF0000;" edge="1" parent="WIyWlLk6GJQsqaUBKTNV-1" source="kkI6u4sP05yuK3E6vkb3-34" target="kkI6u4sP05yuK3E6vkb3-37">
          <mxGeometry relative="1" as="geometry" />
        </mxCell>
        <mxCell id="kkI6u4sP05yuK3E6vkb3-34" value="Trimming" style="rounded=1;whiteSpace=wrap;html=1;fontSize=12;glass=0;strokeWidth=1;shadow=0;strokeColor=#FF3333;" vertex="1" parent="WIyWlLk6GJQsqaUBKTNV-1">
          <mxGeometry x="430" y="440.17" width="120" height="40" as="geometry" />
        </mxCell>
        <mxCell id="kkI6u4sP05yuK3E6vkb3-67" style="edgeStyle=orthogonalEdgeStyle;rounded=0;orthogonalLoop=1;jettySize=auto;html=1;entryX=1;entryY=0.75;entryDx=0;entryDy=0;strokeColor=#FF0000;" edge="1" parent="WIyWlLk6GJQsqaUBKTNV-1" source="kkI6u4sP05yuK3E6vkb3-37" target="kkI6u4sP05yuK3E6vkb3-22">
          <mxGeometry relative="1" as="geometry" />
        </mxCell>
        <mxCell id="kkI6u4sP05yuK3E6vkb3-37" value="RNA mapping" style="rounded=1;whiteSpace=wrap;html=1;fontSize=12;glass=0;strokeWidth=1;shadow=0;strokeColor=#FF3333;" vertex="1" parent="WIyWlLk6GJQsqaUBKTNV-1">
          <mxGeometry x="430" y="500.17" width="120" height="40" as="geometry" />
        </mxCell>
        <mxCell id="kkI6u4sP05yuK3E6vkb3-38" value="BWA" style="text;html=1;strokeColor=none;fillColor=none;align=center;verticalAlign=middle;whiteSpace=wrap;rounded=0;strokeWidth=0;" vertex="1" parent="WIyWlLk6GJQsqaUBKTNV-1">
          <mxGeometry x="540" y="505.17" width="60" height="30" as="geometry" />
        </mxCell>
        <mxCell id="kkI6u4sP05yuK3E6vkb3-53" style="edgeStyle=orthogonalEdgeStyle;rounded=0;orthogonalLoop=1;jettySize=auto;html=1;exitX=0;exitY=0.75;exitDx=0;exitDy=0;entryX=0.25;entryY=0;entryDx=0;entryDy=0;strokeColor=#3029FF;" edge="1" parent="WIyWlLk6GJQsqaUBKTNV-1" source="kkI6u4sP05yuK3E6vkb3-41" target="kkI6u4sP05yuK3E6vkb3-45">
          <mxGeometry relative="1" as="geometry" />
        </mxCell>
        <mxCell id="kkI6u4sP05yuK3E6vkb3-41" value="PacBio" style="text;html=1;strokeColor=#FFFFFF;fillColor=none;align=center;verticalAlign=middle;whiteSpace=wrap;rounded=0;strokeWidth=0;" vertex="1" parent="WIyWlLk6GJQsqaUBKTNV-1">
          <mxGeometry x="135" y="272.5" width="50" height="30" as="geometry" />
        </mxCell>
        <mxCell id="kkI6u4sP05yuK3E6vkb3-54" style="edgeStyle=orthogonalEdgeStyle;rounded=0;orthogonalLoop=1;jettySize=auto;html=1;exitX=1;exitY=0.75;exitDx=0;exitDy=0;strokeColor=#3029FF;" edge="1" parent="WIyWlLk6GJQsqaUBKTNV-1" source="kkI6u4sP05yuK3E6vkb3-42" target="kkI6u4sP05yuK3E6vkb3-11">
          <mxGeometry relative="1" as="geometry" />
        </mxCell>
        <mxCell id="kkI6u4sP05yuK3E6vkb3-62" style="edgeStyle=orthogonalEdgeStyle;rounded=0;orthogonalLoop=1;jettySize=auto;html=1;exitX=0.5;exitY=1;exitDx=0;exitDy=0;entryX=0.25;entryY=0;entryDx=0;entryDy=0;strokeColor=#3029FF;" edge="1" parent="WIyWlLk6GJQsqaUBKTNV-1" source="kkI6u4sP05yuK3E6vkb3-45" target="kkI6u4sP05yuK3E6vkb3-22">
          <mxGeometry relative="1" as="geometry">
            <mxPoint x="140" y="500" as="targetPoint" />
            <Array as="points">
              <mxPoint x="140" y="430" />
              <mxPoint x="230" y="430" />
              <mxPoint x="230" y="500" />
            </Array>
          </mxGeometry>
        </mxCell>
        <mxCell id="kkI6u4sP05yuK3E6vkb3-45" value="Evaluation" style="rounded=1;whiteSpace=wrap;html=1;fontSize=12;glass=0;strokeWidth=1;shadow=0;strokeColor=#3029FF;" vertex="1" parent="WIyWlLk6GJQsqaUBKTNV-1">
          <mxGeometry x="80" y="320" width="120" height="40" as="geometry" />
        </mxCell>
        <mxCell id="kkI6u4sP05yuK3E6vkb3-47" value="" style="rhombus;whiteSpace=wrap;html=1;strokeColor=#3029FF;" vertex="1" parent="WIyWlLk6GJQsqaUBKTNV-1">
          <mxGeometry x="250" y="270" width="80" height="35" as="geometry" />
        </mxCell>
        <mxCell id="kkI6u4sP05yuK3E6vkb3-42" value="ONT" style="text;html=1;strokeColor=#FFFFFF;fillColor=none;align=center;verticalAlign=middle;whiteSpace=wrap;rounded=0;gradientColor=default;strokeWidth=0;" vertex="1" parent="WIyWlLk6GJQsqaUBKTNV-1">
          <mxGeometry x="270" y="272.5" width="40" height="30" as="geometry" />
        </mxCell>
        <mxCell id="kkI6u4sP05yuK3E6vkb3-66" value="Quast" style="text;html=1;strokeColor=none;fillColor=none;align=center;verticalAlign=middle;whiteSpace=wrap;rounded=0;strokeWidth=0;" vertex="1" parent="WIyWlLk6GJQsqaUBKTNV-1">
          <mxGeometry x="30" y="325" width="60" height="30" as="geometry" />
        </mxCell>
        <mxCell id="kkI6u4sP05yuK3E6vkb3-70" value="Differential expression" style="rounded=1;whiteSpace=wrap;html=1;fontSize=12;glass=0;strokeWidth=1;shadow=0;strokeColor=#FF3333;" vertex="1" parent="WIyWlLk6GJQsqaUBKTNV-1">
          <mxGeometry x="430" y="580.17" width="120" height="40" as="geometry" />
        </mxCell>
        <mxCell id="kkI6u4sP05yuK3E6vkb3-81" style="edgeStyle=orthogonalEdgeStyle;rounded=0;orthogonalLoop=1;jettySize=auto;html=1;exitX=0.5;exitY=1;exitDx=0;exitDy=0;entryX=0.5;entryY=0;entryDx=0;entryDy=0;strokeColor=#3029FF;" edge="1" parent="WIyWlLk6GJQsqaUBKTNV-1" source="kkI6u4sP05yuK3E6vkb3-71" target="kkI6u4sP05yuK3E6vkb3-72">
          <mxGeometry relative="1" as="geometry" />
        </mxCell>
        <mxCell id="kkI6u4sP05yuK3E6vkb3-71" value="SNP calling" style="rounded=1;whiteSpace=wrap;html=1;fontSize=12;glass=0;strokeWidth=1;shadow=0;strokeColor=#3029FF;" vertex="1" parent="WIyWlLk6GJQsqaUBKTNV-1">
          <mxGeometry x="230" y="645.17" width="120" height="40" as="geometry" />
        </mxCell>
        <mxCell id="kkI6u4sP05yuK3E6vkb3-72" value="Antibiotic resistance analysis" style="rounded=1;whiteSpace=wrap;html=1;fontSize=12;glass=0;strokeWidth=1;shadow=0;strokeColor=#3029FF;" vertex="1" parent="WIyWlLk6GJQsqaUBKTNV-1">
          <mxGeometry x="230" y="705.17" width="120" height="40" as="geometry" />
        </mxCell>
        <mxCell id="kkI6u4sP05yuK3E6vkb3-80" style="edgeStyle=orthogonalEdgeStyle;rounded=0;orthogonalLoop=1;jettySize=auto;html=1;exitX=0.5;exitY=1;exitDx=0;exitDy=0;entryX=0.5;entryY=0;entryDx=0;entryDy=0;strokeColor=#3029FF;" edge="1" parent="WIyWlLk6GJQsqaUBKTNV-1" source="kkI6u4sP05yuK3E6vkb3-73" target="kkI6u4sP05yuK3E6vkb3-71">
          <mxGeometry relative="1" as="geometry" />
        </mxCell>
        <mxCell id="kkI6u4sP05yuK3E6vkb3-83" style="edgeStyle=orthogonalEdgeStyle;rounded=0;orthogonalLoop=1;jettySize=auto;html=1;exitX=0.75;exitY=0;exitDx=0;exitDy=0;" edge="1" parent="WIyWlLk6GJQsqaUBKTNV-1" source="kkI6u4sP05yuK3E6vkb3-73">
          <mxGeometry relative="1" as="geometry">
            <mxPoint x="320.16666666666674" y="585.0033333333333" as="targetPoint" />
          </mxGeometry>
        </mxCell>
        <mxCell id="kkI6u4sP05yuK3E6vkb3-87" style="edgeStyle=orthogonalEdgeStyle;rounded=0;orthogonalLoop=1;jettySize=auto;html=1;exitX=0;exitY=0.5;exitDx=0;exitDy=0;entryX=1;entryY=0.5;entryDx=0;entryDy=0;strokeColor=#3029FF;" edge="1" parent="WIyWlLk6GJQsqaUBKTNV-1" source="kkI6u4sP05yuK3E6vkb3-73" target="kkI6u4sP05yuK3E6vkb3-86">
          <mxGeometry relative="1" as="geometry" />
        </mxCell>
        <mxCell id="kkI6u4sP05yuK3E6vkb3-73" value="Synteny" style="rounded=1;whiteSpace=wrap;html=1;fontSize=12;glass=0;strokeWidth=1;shadow=0;strokeColor=#3029FF;" vertex="1" parent="WIyWlLk6GJQsqaUBKTNV-1">
          <mxGeometry x="230" y="585.17" width="120" height="40" as="geometry" />
        </mxCell>
        <mxCell id="kkI6u4sP05yuK3E6vkb3-74" value="Blastn" style="text;html=1;strokeColor=none;fillColor=none;align=center;verticalAlign=middle;whiteSpace=wrap;rounded=0;strokeWidth=0;" vertex="1" parent="WIyWlLk6GJQsqaUBKTNV-1">
          <mxGeometry x="340" y="590.17" width="60" height="30" as="geometry" />
        </mxCell>
        <mxCell id="kkI6u4sP05yuK3E6vkb3-76" value="BCFtools" style="text;html=1;strokeColor=none;fillColor=none;align=center;verticalAlign=middle;whiteSpace=wrap;rounded=0;strokeWidth=0;" vertex="1" parent="WIyWlLk6GJQsqaUBKTNV-1">
          <mxGeometry x="350" y="650.17" width="60" height="30" as="geometry" />
        </mxCell>
        <mxCell id="kkI6u4sP05yuK3E6vkb3-77" value="ResFinder" style="text;html=1;strokeColor=none;fillColor=none;align=center;verticalAlign=middle;whiteSpace=wrap;rounded=0;strokeWidth=0;" vertex="1" parent="WIyWlLk6GJQsqaUBKTNV-1">
          <mxGeometry x="350" y="710.17" width="60" height="30" as="geometry" />
        </mxCell>
        <mxCell id="kkI6u4sP05yuK3E6vkb3-82" value="Htseq&lt;br&gt;Deseq2" style="text;html=1;strokeColor=none;fillColor=none;align=center;verticalAlign=middle;whiteSpace=wrap;rounded=0;strokeWidth=0;" vertex="1" parent="WIyWlLk6GJQsqaUBKTNV-1">
          <mxGeometry x="550" y="585.17" width="60" height="30" as="geometry" />
        </mxCell>
        <mxCell id="kkI6u4sP05yuK3E6vkb3-86" value="Visualize" style="rounded=1;whiteSpace=wrap;html=1;fontSize=12;glass=0;strokeWidth=1;shadow=0;strokeColor=#3029FF;" vertex="1" parent="WIyWlLk6GJQsqaUBKTNV-1">
          <mxGeometry x="90" y="585" width="120" height="40" as="geometry" />
        </mxCell>
        <mxCell id="kkI6u4sP05yuK3E6vkb3-88" value="ACT" style="text;html=1;strokeColor=none;fillColor=none;align=center;verticalAlign=middle;whiteSpace=wrap;rounded=0;strokeWidth=0;" vertex="1" parent="WIyWlLk6GJQsqaUBKTNV-1">
          <mxGeometry x="40" y="590.17" width="60" height="30" as="geometry" />
        </mxCell>
        <mxCell id="kkI6u4sP05yuK3E6vkb3-90" value="RNA" style="text;html=1;strokeColor=none;fillColor=none;align=center;verticalAlign=middle;whiteSpace=wrap;rounded=0;strokeWidth=0;fontStyle=1;fontSize=14;" vertex="1" parent="WIyWlLk6GJQsqaUBKTNV-1">
          <mxGeometry x="660" y="340.17" width="60" height="30" as="geometry" />
        </mxCell>
        <mxCell id="kkI6u4sP05yuK3E6vkb3-91" value="Identify essential genes" style="rounded=1;whiteSpace=wrap;html=1;fontSize=12;glass=0;strokeWidth=1;shadow=0;strokeColor=#FF3333;" vertex="1" parent="WIyWlLk6GJQsqaUBKTNV-1">
          <mxGeometry x="630" y="380.17" width="120" height="40" as="geometry" />
        </mxCell>
        <mxCell id="kkI6u4sP05yuK3E6vkb3-92" value="Transit" style="text;html=1;strokeColor=none;fillColor=none;align=center;verticalAlign=middle;whiteSpace=wrap;rounded=0;strokeWidth=0;" vertex="1" parent="WIyWlLk6GJQsqaUBKTNV-1">
          <mxGeometry x="750" y="385.17" width="60" height="30" as="geometry" />
        </mxCell>
      </root>
    </mxGraphModel>
  </diagram>
</mxfile>
